<svg xmlns="http://www.w3.org/2000/svg" width="96.637" height="94.861" viewBox="0 0 96.637 94.861">
  <path id="Tracé_47" data-name="Tracé 47" d="M89.037,73.369c-5.258-.131-9.333.395-12.751,1.841-.986.394-2.564.394-2.7,1.643.526.526.592,1.38,1.052,2.1a15.409,15.409,0,0,0,3.418,4.01c1.38,1.051,2.761,2.1,4.206,3.023,2.564,1.578,5.456,2.5,7.953,4.075,1.447.919,2.891,2.1,4.338,3.089.723.525,1.183,1.38,2.1,1.709v-.2c-.461-.592-.592-1.446-1.052-2.1-.657-.657-1.315-1.249-1.972-1.906A31.175,31.175,0,0,0,86.8,84.017c-2.1-1.446-6.7-3.418-7.559-5.85l-.131-.131a26.73,26.73,0,0,0,4.535-1.052c2.235-.592,4.272-.46,6.573-1.052,1.051-.263,2.1-.592,3.154-.92v-.591c-1.182-1.183-2.037-2.76-3.286-3.878a87.633,87.633,0,0,0-10.845-8.084c-2.038-1.315-4.667-2.169-6.836-3.286-.788-.395-2.1-.592-2.563-1.249a26.51,26.51,0,0,1-2.7-5.061c-1.906-3.615-3.746-7.624-5.39-11.436-1.182-2.564-1.906-5.127-3.352-7.493C51.639,22.76,44.278,15.991,32.973,9.352c-2.432-1.38-5.324-1.972-8.413-2.694-1.643-.066-3.286-.2-4.929-.263-1.052-.46-2.1-1.709-3.024-2.3C12.862,1.728,3.2-3.4.439,3.371c-1.775,4.272,2.629,8.478,4.14,10.648a30.958,30.958,0,0,1,3.352,4.929c.46,1.117.591,2.3,1.051,3.483A78.915,78.915,0,0,0,12.4,31.239a31.778,31.778,0,0,0,2.432,4.075c.526.723,1.446,1.052,1.643,2.235-.92,1.315-.986,3.287-1.512,4.93C12.6,49.9,13.519,59.106,16.87,64.561c1.051,1.643,3.549,5.259,6.9,3.878,2.958-1.183,2.3-4.929,3.154-8.215.2-.79.066-1.315.461-1.841v.132c.92,1.84,1.84,3.615,2.695,5.455a37.533,37.533,0,0,0,8.544,8.807c1.578,1.182,2.827,3.22,4.8,3.943v-.2h-.132a7.267,7.267,0,0,0-1.511-1.315,31.865,31.865,0,0,1-3.418-3.943A84.568,84.568,0,0,1,31,59.3c-1.051-2.037-1.972-4.272-2.826-6.309-.395-.79-.395-1.972-1.052-2.366-.986,1.446-2.432,2.695-3.155,4.469-1.248,2.826-1.38,6.31-1.84,9.924-.263.066-.132,0-.263.132-2.1-.527-2.826-2.7-3.615-4.536-1.972-4.666-2.3-12.159-.591-17.548.46-1.38,2.432-5.718,1.643-7.033-.394-1.249-1.709-1.972-2.432-2.958A26.482,26.482,0,0,1,14.5,28.873c-1.578-3.681-2.366-7.756-4.075-11.436a34.982,34.982,0,0,0-3.286-5.061C5.894,10.6,4.514,9.352,3.528,7.249c-.328-.723-.789-1.906-.263-2.695a1.047,1.047,0,0,1,.92-.854c.855-.723,3.287.2,4.14.591a33.5,33.5,0,0,1,6.507,3.286c.92.657,1.906,1.906,3.089,2.235H19.3c2.1.46,4.469.131,6.441.723a42,42,0,0,1,9.465,4.535A58.311,58.311,0,0,1,55.714,37.548c.789,1.511,1.117,2.892,1.84,4.469,1.381,3.221,3.089,6.507,4.469,9.662a43.223,43.223,0,0,0,4.667,8.807c.986,1.38,4.929,2.1,6.7,2.826a46.612,46.612,0,0,1,4.535,1.84c2.235,1.38,4.469,2.958,6.573,4.469,1.052.789,4.338,2.432,4.535,3.746Z" transform="translate(-0.024 0)"/>
</svg>
