<svg xmlns="http://www.w3.org/2000/svg" width="64.22" height="70.77" viewBox="0 0 64.22 70.77">
  <g id="nodejs" transform="translate(-0.603 -0.584)">
    <path id="Tracé_34" data-name="Tracé 34" d="M29.816,1.34a5.935,5.935,0,0,1,5.794,0Q48.84,8.816,62.072,16.287a5.447,5.447,0,0,1,2.751,4.692V50.964a5.507,5.507,0,0,1-2.957,4.794Q48.679,63.193,35.5,70.634a5.767,5.767,0,0,1-5.858-.163q-3.954-2.292-7.912-4.575A4.658,4.658,0,0,1,20.2,64.8c.336-.453.937-.51,1.426-.707a18.466,18.466,0,0,0,3.121-1.456.729.729,0,0,1,.813.049c2.254,1.292,4.488,2.622,6.749,3.9.482.279.971-.091,1.383-.321q12.941-7.314,25.89-14.611a.856.856,0,0,0,.47-.843q.009-14.837,0-29.677a.927.927,0,0,0-.552-.925Q46.365,12.806,33.229,5.4a.913.913,0,0,0-1.032,0Q19.058,12.8,5.924,20.211a.916.916,0,0,0-.556.921q0,14.837,0,29.678a.839.839,0,0,0,.476.833q3.506,1.988,7.017,3.963a5.422,5.422,0,0,0,4.387.587A3.328,3.328,0,0,0,19.4,53.066c.012-9.834-.006-19.669.009-29.5a.741.741,0,0,1,.807-.756c1.123-.008,2.248-.015,3.371,0a.778.778,0,0,1,.733.9c0,9.9.012,19.793-.008,29.689,0,2.637-1.081,5.507-3.52,6.8a10.841,10.841,0,0,1-9.689-.266c-2.57-1.283-5.023-2.8-7.548-4.171A5.494,5.494,0,0,1,.6,50.964V20.978a5.458,5.458,0,0,1,2.846-4.751Q16.634,8.786,29.816,1.34Z" transform="translate(0 0)" fill="#8cc84b"/>
    <path id="Tracé_35" data-name="Tracé 35" d="M115.4,85.7c3.834-.247,7.938-.146,11.388,1.742a8.612,8.612,0,0,1,4.2,7.452.806.806,0,0,1-.875.594c-1.112,0-2.225.015-3.337-.008a.86.86,0,0,1-.805-.834,5.08,5.08,0,0,0-2.43-3.511c-2.051-1.027-4.43-.975-6.667-.954A9.05,9.05,0,0,0,112.1,91.37a3.024,3.024,0,0,0-1.006,3.378c.357.849,1.338,1.123,2.14,1.376,4.62,1.208,9.516,1.088,14.048,2.678a6.614,6.614,0,0,1,4.354,3.873,8.274,8.274,0,0,1-1.4,7.894,11.061,11.061,0,0,1-5.938,3.2,28.53,28.53,0,0,1-8.963.381c-2.8-.32-5.721-1.056-7.885-2.966a8.274,8.274,0,0,1-2.665-6.527A.748.748,0,0,1,105.6,104c1.12-.009,2.24-.012,3.36,0a.785.785,0,0,1,.8.776,5.091,5.091,0,0,0,1.895,3.575c2.277,1.469,5.133,1.368,7.74,1.409,2.16-.1,4.584-.125,6.346-1.552a3.505,3.505,0,0,0,.954-3.348c-.272-.989-1.307-1.45-2.2-1.752-4.561-1.443-9.511-.919-14.028-2.551a6.827,6.827,0,0,1-4.311-3.757,7.7,7.7,0,0,1,1.537-8.006c2.018-2.032,4.931-2.814,7.7-3.094Z" transform="translate(-77.918 -63.589)" fill="#8cc84b"/>
  </g>
</svg>
