<svg id="php" xmlns="http://www.w3.org/2000/svg" xmlns:xlink="http://www.w3.org/1999/xlink" width="112.93" height="112.93" viewBox="0 0 112.93 112.93">
  <defs>
    <clipPath id="clip-path">
      <path id="Tracé_29" data-name="Tracé 29" d="M60.738,104.152c27.845,0,50.42-11.876,50.42-26.523S88.584,51.106,60.738,51.106s-50.42,11.875-50.42,26.523,22.575,26.523,50.42,26.523Z" transform="translate(-10.318 -51.106)"/>
    </clipPath>
  </defs>
  <path id="Tracé_28" data-name="Tracé 28" d="M0,0H112.93V112.93H0Z" fill="none" fill-rule="evenodd"/>
  <path id="Tracé_31" data-name="Tracé 31" d="M62.13,103.576c26.759,0,48.45-10.993,48.45-24.553S88.889,54.469,62.13,54.469,13.68,65.462,13.68,79.022s21.692,24.553,48.45,24.553Z" transform="translate(-5.665 -22.557)" fill="#6e81b6" fill-rule="evenodd"/>
  <path id="Tracé_32" data-name="Tracé 32" d="M80.844,90.473l2.4-12.369c.543-2.792.091-4.874-1.34-6.19-1.387-1.273-3.741-1.892-7.2-1.892H70.549l1.19-6.128a.787.787,0,0,0-.773-.939H65.223a.788.788,0,0,0-.773.638L61.9,76.724a7.387,7.387,0,0,0-1.719-3.8c-1.685-1.929-4.35-2.907-7.922-2.907H41.122a.788.788,0,0,0-.773.637l-5.166,26.58a.788.788,0,0,0,.773.938h5.79a.788.788,0,0,0,.773-.639l1.25-6.429h4.31a18.624,18.624,0,0,0,5.645-.728A11.05,11.05,0,0,0,57.867,87.9a12.731,12.731,0,0,0,2.448-3.04l-1.032,5.31a.788.788,0,0,0,.773.938H65.8a.788.788,0,0,0,.773-.637l2.835-14.59h3.942c1.68,0,2.172.335,2.306.478s.373.593.09,2.051l-2.285,11.76a.789.789,0,0,0,.773.938h5.836a.786.786,0,0,0,.773-.636ZM54.212,80.253a6.293,6.293,0,0,1-2.021,3.931,7.809,7.809,0,0,1-4.735,1.157H44.889l1.855-9.549h3.318c2.437,0,3.419.521,3.813.957C54.423,77.355,54.539,78.567,54.212,80.253Zm50.83-7.325c-1.684-1.929-4.35-2.907-7.922-2.907H85.986a.788.788,0,0,0-.773.637l-5.165,26.58a.787.787,0,0,0,.772.938h5.79a.788.788,0,0,0,.773-.639l1.25-6.429h4.31a18.62,18.62,0,0,0,5.645-.728,11.041,11.041,0,0,0,4.143-2.482,12.349,12.349,0,0,0,3.877-6.94c.658-3.387.131-6.089-1.567-8.032ZM99.4,80.253a6.3,6.3,0,0,1-2.021,3.931,7.812,7.812,0,0,1-4.735,1.157H90.082l1.855-9.549h3.318c2.437,0,3.419.521,3.814.957.545.606.662,1.818.335,3.5Z" transform="translate(-14.564 -26.071)" fill="#fff" fill-rule="evenodd"/>
  <path id="Tracé_33" data-name="Tracé 33" d="M50.619,75.561q3.3,0,4.4,1.218t.524,4.181a7.01,7.01,0,0,1-2.314,4.405,8.5,8.5,0,0,1-5.215,1.319H44.49l2.162-11.124ZM36.512,97.946H42.3l1.374-7.066h4.959a17.764,17.764,0,0,0,5.4-.69,10.234,10.234,0,0,0,3.854-2.312,11.549,11.549,0,0,0,3.636-6.511Q62.446,76.64,60.141,74t-7.329-2.637H41.678ZM65.779,64.3h5.744L70.15,71.367h5.118q4.828,0,6.663,1.684t1.1,5.46l-2.4,12.369H74.792l2.285-11.761q.389-2.007-.287-2.737t-2.882-.73H69.316L66.357,90.88H60.612ZM95.812,75.561q3.3,0,4.4,1.218t.523,4.181a7,7,0,0,1-2.314,4.405,8.5,8.5,0,0,1-5.214,1.319H89.684l2.161-11.124ZM81.7,97.946h5.79l1.373-7.066h4.959a17.765,17.765,0,0,0,5.4-.69,10.234,10.234,0,0,0,3.854-2.312,11.563,11.563,0,0,0,3.637-6.511q.918-4.726-1.386-7.363T98,71.367H86.871L81.7,97.946Z" transform="translate(-15.121 -26.628)" fill-rule="evenodd"/>
</svg>
