<svg xmlns="http://www.w3.org/2000/svg" width="92.983" height="99.688" viewBox="0 0 92.983 99.688">
  <path id="surface1" d="M73.418,2.1a35.67,35.67,0,0,0-8.941,1.334,42.2,42.2,0,0,1,9.165,5.588c3.581,3.127,5.588,6.261,9.169,11.4a18.621,18.621,0,0,1,2.454,5.134,18.593,18.593,0,0,1,.671,5.814,54.218,54.218,0,0,1-.452,6.48,12.42,12.42,0,0,1-.438,2.689,1.655,1.655,0,0,1-.226.89,8.324,8.324,0,0,0,.226,2.463c0,.89.219,1.788.219,3.353a26.409,26.409,0,0,1-.219,7.37v.9a18.114,18.114,0,0,1-2.016,5.807c.228.454.447.671.671,1.118a35.4,35.4,0,0,0,2.9-4.909,82.154,82.154,0,0,0,5.369-12.294,114.3,114.3,0,0,0,3.8-13.192c1.56-6.706,1.788-9.831,1.118-13.412A11.722,11.722,0,0,0,95.323,13.5c-2.463-4.471-6.259-6.482-8.941-7.823A30.321,30.321,0,0,0,73.418,2.1Zm-48.427.986A19.909,19.909,0,0,0,15.744,5a17.482,17.482,0,0,0-7.151,5.588,21.277,21.277,0,0,0-3.8,9.388c-.671,3.353-.9,7.385.447,14.983.89,5.36,1.788,8.941,3.576,16.311.228.9,1.565,4.924,4.471,13.865l.219.445a23.26,23.26,0,0,0,4.7,8.27c2.007,2.235,3.8,3.576,5.369,3.576h.438c2.906,0,4.924-2.235,6.706-4.023,0-.228,4.251-5.36,5.814-7.153-.226-.224-.664-.224-.89-.452a17.988,17.988,0,0,1-6.261-6.706A19.166,19.166,0,0,1,27.367,46.8l.226-3.791a52.085,52.085,0,0,1,.454-17.663c.892-4.918,2.009-9.831,6.026-14.976A21.216,21.216,0,0,1,38.543,5.9,32.57,32.57,0,0,0,27.367,3.22c-.726-.063-1.52-.114-2.376-.132ZM53.073,5a16.592,16.592,0,0,0-3.353.228,20.351,20.351,0,0,0-12.068,7.6c-3.353,4.254-4.243,8.27-5.134,12.967a39.736,39.736,0,0,0-.68,5.143A14.176,14.176,0,0,1,37.652,27.8c1.565-.447,5.588-1.781,8.941.226,1.118.673,2.682,2.018,4.245,5.816,3.353,9.386.009,19-.438,19.889a8.62,8.62,0,0,1-.9,2.01,24.044,24.044,0,0,0-1.337,3.807,29.977,29.977,0,0,0-.454,4.471,3.567,3.567,0,0,1,2.009.664,7.387,7.387,0,0,1,1.571,3.353,109.643,109.643,0,0,1,.445,12.52c0,3.581,0,6.934.219,9.169.454,5.141,2.016,8.713,4.251,10.5,1.565,1.346,3.572,1.337,4.69,1.565h.454c3.353,0,8.713-2.235,10.723-5.365a15.132,15.132,0,0,0,2.016-5.588c.228-1.341.219-2.007.447-3.353,0-.671.224-1.788.224-3.125a30.859,30.859,0,0,1,.447-4.032c.228-3.8.89-8.262,1.118-10.723a14.135,14.135,0,0,1,2.682-6.934c-1.565-.226-3.129-1.562-4.019-3.8a13.118,13.118,0,0,1-1.8-4.251,32.557,32.557,0,0,0-2.235-5.362c-3.353-7.6-3.791-9.831-3.791-11.621-.226-2.463-.454-5.807,2.235-8.042a12.448,12.448,0,0,1,11.84-2.461v-.454a11.119,11.119,0,0,0-2.007-4.017c-3.355-5.143-5.143-7.826-8.277-10.508a32.011,32.011,0,0,0-9.6-5.588A27.242,27.242,0,0,0,53.073,5ZM77.781,31.212A7.338,7.338,0,0,0,72.3,32.949c-.89.892-.89,2.682-.664,4.245,0,1.118.219,2.68,3.572,10.284a42.005,42.005,0,0,1,2.235,5.588,15.33,15.33,0,0,0,1.788,3.791,4.657,4.657,0,0,0,.894,1.343,8.995,8.995,0,0,0,.89-3.579l.226-.664c.447-2.009.228-3.581.228-6.261,0-1.346-.228-2.235-.228-2.906a15.678,15.678,0,0,1-.226-3.353c-.447-.675-.447-.894-.219-1.346,0-.447.219-1.109.447-2.454a39.913,39.913,0,0,0,.452-5.141c-.454-.228-.671-.447-1.118-.666A9.5,9.5,0,0,0,77.781,31.212Zm-34.95.883a10.179,10.179,0,0,0-4.061.626,13.545,13.545,0,0,0-5.134,3.129,20.393,20.393,0,0,0-2.016,2.235,32.7,32.7,0,0,0,.447,4.694v.228l-.447,4.471a13.461,13.461,0,0,0,1.565,9.6,11.717,11.717,0,0,0,4.694,5.143,15.688,15.688,0,0,0,5.137,2.016,35.817,35.817,0,0,1,.454-4.924,16.27,16.27,0,0,1,1.562-4.7,6.706,6.706,0,0,1,.9-1.782c.219-.673,3.344-9.169.438-16.992-.664-1.788-1.337-2.906-2.235-3.353a3.286,3.286,0,0,0-1.3-.4Zm32.8,1.274a2.014,2.014,0,0,1,1.37.246c.671.443-.228,1.56-.454,1.788a3.361,3.361,0,0,1-1.337.9c-.89.219-1.565-.454-1.788-.454-.228-.226-.894-.89-.666-1.562.219-.447.447-.447,1.337-.671a6.348,6.348,0,0,1,1.538-.246Zm-33.6,1.851a4.7,4.7,0,0,1,1.887.4c.671.226,1.337.454,1.337.9.226.671-.438,1.118-.664,1.337a2.877,2.877,0,0,1-1.79.68,2.622,2.622,0,0,1-2.235-1.343.971.971,0,0,1-.219-1.118,1.185,1.185,0,0,1,.892-.673,2.6,2.6,0,0,1,.794-.183Zm41,29.242c-1.118,1.565-2.682,3.581-2.906,6.259a1.974,1.974,0,0,1-.228,1.118,12.472,12.472,0,0,0,4.924.228A12.7,12.7,0,0,0,91.3,69.379c1.565-1.118,3.581-3.353,3.127-4.243-.219-.447-.892-.228-4.471,0-.892,0-3.572.671-5.362.226h-.445a2.283,2.283,0,0,1-1.118-.9Zm-38.9,4.471A10.3,10.3,0,0,1,42.576,70.5a19.227,19.227,0,0,1-6.268,2.459c-2.009.675-3.127.675-3.127,1.346-.226.892,2.009,2.009,3.127,2.454a13.319,13.319,0,0,0,8.277.447c.445-.228,1.562-.675,2.68-1.346a51.25,51.25,0,0,0-.447-6.48v-.226h-.224a9.82,9.82,0,0,1-2.463-.219Z" transform="translate(-4.261 -2.102)"/>
</svg>
