<svg width="93" height="100" viewBox="0 0 93 100" fill="none" xmlns="http://www.w3.org/2000/svg">
<path d="M69.1605 0C66.1356 0.0636809 63.1312 0.511947 60.2195 1.334C63.4999 2.79895 66.5798 4.6768 69.3845 6.922C72.9655 10.049 74.9725 13.183 78.5535 18.322C79.6297 19.8975 80.4573 21.629 81.0075 23.456C81.5367 25.3464 81.7631 27.3087 81.6785 29.27C81.6575 31.4371 81.5065 33.601 81.2265 35.75C81.1795 36.6597 81.0326 37.5614 80.7885 38.439C80.7986 38.751 80.7202 39.0596 80.5625 39.329C80.5147 40.1567 80.5909 40.9868 80.7885 41.792C80.7885 42.682 81.0075 43.58 81.0075 45.145C81.2795 47.5998 81.2057 50.0807 80.7885 52.515V53.415C80.4522 55.4514 79.7704 57.4153 78.7725 59.222C79.0005 59.676 79.2195 59.893 79.4435 60.34C80.5406 58.7843 81.5104 57.1426 82.3435 55.431C84.4653 51.4862 86.261 47.3745 87.7125 43.137C89.2423 38.8198 90.5113 34.4145 91.5125 29.945C93.0725 23.239 93.3005 20.114 92.6305 16.533C92.5127 14.724 91.977 12.967 91.0655 11.4C88.6025 6.929 84.8065 4.918 82.1245 3.577C78.1254 1.42929 73.6951 0.206888 69.1605 0V0ZM20.7335 0.986C17.5423 0.873202 14.3707 1.52967 11.4865 2.9C8.65246 4.10069 6.18568 6.02831 4.33548 8.488C2.33164 11.2659 1.02804 14.4864 0.535481 17.876C-0.135519 21.229 -0.36452 25.261 0.98248 32.859C1.87248 38.219 2.77048 41.8 4.55848 49.17C4.78648 50.07 6.12348 54.094 9.02948 63.035L9.24848 63.48C10.2287 66.531 11.8288 69.3465 13.9485 71.75C15.9555 73.985 17.7485 75.326 19.3175 75.326H19.7555C22.6615 75.326 24.6795 73.091 26.4615 71.303C26.4615 71.075 30.7125 65.943 32.2755 64.15C32.0495 63.926 31.6115 63.926 31.3855 63.698C28.7539 62.0414 26.5968 59.7309 25.1245 56.992C23.103 53.2333 22.3938 48.9074 23.1095 44.7L23.3355 40.909C22.4798 35.0384 22.6333 29.0648 23.7895 23.246C24.6815 18.328 25.7985 13.415 29.8155 8.27C31.0739 6.56513 32.5806 5.05841 34.2855 3.8C30.7485 2.25126 26.9642 1.3438 23.1095 1.12C22.3835 1.057 21.5895 1.006 20.7335 0.988V0.986ZM48.8155 2.9C47.693 2.86232 46.5696 2.93871 45.4625 3.128C40.6548 4.12274 36.3687 6.82194 33.3945 10.728C30.0415 14.982 29.1515 18.998 28.2605 23.695C27.922 25.3927 27.6949 27.1107 27.5805 28.838C29.2443 27.3487 31.2364 26.2735 33.3945 25.7C34.9595 25.253 38.9825 23.919 42.3355 25.926C43.4535 26.599 45.0175 27.944 46.5805 31.742C49.9335 41.128 46.5895 50.742 46.1425 51.631C45.9297 52.3367 45.6272 53.0122 45.2425 53.641C44.6909 54.8703 44.2437 56.1438 43.9055 57.448C43.6425 58.9249 43.4907 60.4194 43.4515 61.919C44.1729 61.932 44.8734 62.1636 45.4605 62.583C46.2603 63.5492 46.801 64.7031 47.0315 65.936C47.4183 70.0974 47.5669 74.2776 47.4765 78.456C47.4765 82.037 47.4765 85.39 47.6955 87.625C48.1495 92.766 49.7115 96.338 51.9465 98.125C53.5115 99.471 55.5185 99.462 56.6365 99.69H57.0905C60.4435 99.69 65.8035 97.455 67.8135 94.325C68.8481 92.6138 69.5333 90.7146 69.8295 88.737C70.0575 87.396 70.0485 86.73 70.2765 85.384C70.2765 84.713 70.5005 83.596 70.5005 82.259C70.5609 80.9067 70.7102 79.5597 70.9475 78.227C71.1755 74.427 71.8375 69.965 72.0655 67.504C72.3247 64.9948 73.2508 62.6006 74.7475 60.57C73.1825 60.344 71.6185 59.008 70.7285 56.77C69.8819 55.4705 69.2725 54.0313 68.9285 52.519C68.3447 50.6686 67.5968 48.8742 66.6935 47.157C63.3405 39.557 62.9025 37.326 62.9025 35.536C62.6765 33.073 62.4485 29.729 65.1375 27.494C66.7392 26.1113 68.6669 25.1597 70.7385 24.7291C72.8102 24.2985 74.9575 24.4031 76.9775 25.033V24.579C76.5886 23.1174 75.9057 21.7506 74.9705 20.562C71.6155 15.419 69.8275 12.736 66.6935 10.054C63.8436 7.64612 60.5947 5.75499 57.0935 4.466C54.432 3.5179 51.6393 2.98959 48.8155 2.9V2.9ZM73.5235 29.112C72.54 29.0176 71.5476 29.1228 70.6058 29.4213C69.6639 29.7198 68.7921 30.2054 68.0425 30.849C67.1525 31.741 67.1525 33.531 67.3785 35.094C67.3785 36.212 67.5975 37.774 70.9505 45.378C71.8281 47.1848 72.575 49.0523 73.1855 50.966C73.6051 52.3056 74.2067 53.5812 74.9735 54.757C75.1911 55.2533 75.4936 55.7078 75.8675 56.1C76.4082 54.9813 76.7112 53.7627 76.7575 52.521L76.9835 51.857C77.4305 49.848 77.2115 48.276 77.2115 45.596C77.2115 44.25 76.9835 43.361 76.9835 42.69C76.7882 41.5837 76.7125 40.4595 76.7575 39.337C76.3105 38.662 76.3105 38.443 76.5385 37.991C76.5385 37.544 76.7575 36.882 76.9855 35.537C77.2469 33.8349 77.3979 32.1176 77.4375 30.396C76.9835 30.168 76.7665 29.949 76.3195 29.73C75.4241 29.3839 74.4813 29.1755 73.5235 29.112V29.112ZM38.5735 29.995C37.1913 29.9254 35.8095 30.1384 34.5125 30.621C32.5884 31.2662 30.8338 32.3356 29.3785 33.75C28.6523 34.4443 27.9785 35.1914 27.3625 35.985C27.3983 37.5584 27.5477 39.1271 27.8095 40.679V40.907L27.3625 45.378C26.6694 48.6612 27.2275 52.0849 28.9275 54.978C29.9348 57.1284 31.5718 58.9219 33.6215 60.121C35.2012 61.0913 36.9405 61.7738 38.7585 62.137C38.7962 60.4872 38.9479 58.8419 39.2125 57.213C39.4902 55.5758 40.017 53.9908 40.7745 52.513C40.9839 51.8774 41.2872 51.2768 41.6745 50.731C41.8935 50.058 45.0185 41.562 42.1125 33.739C41.4485 31.951 40.7755 30.833 39.8775 30.386C39.4768 30.1635 39.034 30.0272 38.5775 29.986L38.5735 29.995ZM71.3735 31.269C71.8449 31.1856 72.3306 31.2728 72.7435 31.515C73.4145 31.958 72.5155 33.075 72.2895 33.303C71.9234 33.707 71.4645 34.0159 70.9525 34.203C70.0625 34.422 69.3875 33.749 69.1645 33.749C68.9365 33.523 68.2705 32.859 68.4985 32.187C68.7175 31.74 68.9455 31.74 69.8355 31.516C70.3361 31.3712 70.8527 31.2886 71.3735 31.27V31.269ZM37.7735 33.12C38.4234 33.1214 39.0659 33.2576 39.6605 33.52C40.3315 33.746 40.9975 33.974 40.9975 34.42C41.2235 35.091 40.5595 35.538 40.3335 35.757C39.832 36.1814 39.2003 36.4214 38.5435 36.437C38.0862 36.4275 37.6393 36.2986 37.2472 36.063C36.8551 35.8274 36.5315 35.4934 36.3085 35.094C36.1589 34.9545 36.0571 34.7713 36.0178 34.5705C35.9785 34.3697 36.0036 34.1617 36.0895 33.976C36.1713 33.7991 36.2956 33.6452 36.4512 33.5278C36.6068 33.4104 36.7889 33.3332 36.9815 33.303C37.2349 33.2007 37.5028 33.1389 37.7755 33.12H37.7735ZM78.7735 62.362C77.6555 63.927 76.0915 65.943 75.8675 68.621C75.9032 69.008 75.8239 69.3969 75.6395 69.739C77.2493 70.1418 78.9233 70.2193 80.5635 69.967C82.9327 69.697 85.178 68.7655 87.0425 67.279C88.6075 66.161 90.6235 63.926 90.1695 63.036C89.9505 62.589 89.2775 62.808 85.6985 63.036C84.8065 63.036 82.1265 63.707 80.3365 63.262H79.8915C79.4318 63.09 79.0397 62.7744 78.7735 62.362V62.362ZM39.8735 66.833C39.4128 67.4095 38.8915 67.9349 38.3185 68.4C36.39 69.582 34.2682 70.4144 32.0505 70.859C30.0415 71.534 28.9235 71.534 28.9235 72.205C28.6975 73.097 30.9325 74.214 32.0505 74.659C34.6917 75.6846 37.5912 75.8412 40.3275 75.106C40.7725 74.878 41.8895 74.431 43.0075 73.76C42.9956 71.5927 42.8463 69.4284 42.5605 67.28V67.054H42.3365C41.5095 67.0851 40.682 67.0115 39.8735 66.835V66.833Z" fill="#00E6BC"/>
</svg>

