<svg id="react_1_" data-name="react (1)" xmlns="http://www.w3.org/2000/svg" width="90" height="80.367" viewBox="0 0 90 80.367">
  <circle id="Ellipse_21" data-name="Ellipse 21" cx="11.4" cy="11.4" r="11.4" transform="translate(33.6 28.784)" fill="#61dafb"/>
  <path id="Tracé_24" data-name="Tracé 24" d="M77.526,34.769c-1.581-.575-3.235-1.15-4.96-1.653.431-1.725.791-3.45,1.078-5.1C75.154,18.523,73.5,11.838,68.9,9.25A8.93,8.93,0,0,0,64.3,8.1c-5.032,0-11.43,3.738-17.9,9.992C39.93,11.838,33.533,8.1,28.5,8.1a8.93,8.93,0,0,0-4.6,1.15c-4.6,2.66-6.254,9.345-4.744,18.762.288,1.653.647,3.379,1.078,5.1a50.132,50.132,0,0,0-4.96,1.653C6.288,38.22,1.4,42.964,1.4,48.284S6.36,58.348,15.274,61.8c1.581.575,3.235,1.15,4.96,1.653-.431,1.725-.791,3.45-1.078,5.1-1.51,9.489.144,16.174,4.744,18.762a8.93,8.93,0,0,0,4.6,1.15c5.1,0,11.5-3.738,17.9-9.992,6.47,6.254,12.867,9.992,17.9,9.992a8.93,8.93,0,0,0,4.6-1.15c4.6-2.66,6.254-9.345,4.744-18.762-.288-1.653-.647-3.379-1.078-5.1a50.132,50.132,0,0,0,4.96-1.653C86.512,58.348,91.4,53.6,91.4,48.284S86.512,38.22,77.526,34.769ZM66.887,12.844c2.947,1.725,3.954,7.045,2.732,14.593a43.289,43.289,0,0,1-1.006,4.744,85.4,85.4,0,0,0-11.861-1.8,103.718,103.718,0,0,0-7.476-9.345c5.319-5.248,10.711-8.842,15.1-8.842a4.856,4.856,0,0,1,2.516.647ZM58.836,55.472c-1.294,2.3-2.8,4.6-4.385,6.9-2.66.216-5.319.288-8.051.288-2.8,0-5.463-.072-8.051-.288q-2.372-3.45-4.313-6.9c-1.366-2.372-2.66-4.816-3.81-7.189,1.15-2.372,2.444-4.816,3.81-7.188,1.294-2.3,2.8-4.6,4.385-6.9,2.66-.216,5.319-.288,8.051-.288,2.8,0,5.463.072,8.051.288q2.372,3.45,4.313,6.9c1.366,2.372,2.66,4.816,3.81,7.188C61.424,50.656,60.2,53.028,58.836,55.472ZM64.8,53.1c1.078,2.516,1.941,4.96,2.732,7.4-2.444.575-5.032,1.006-7.764,1.366.863-1.366,1.8-2.8,2.588-4.313.863-1.51,1.653-3.019,2.444-4.457ZM46.4,72.581c-1.725-1.869-3.379-3.882-4.96-5.966,1.653.072,3.307.144,4.96.144s3.307-.072,4.96-.144C49.779,68.7,48.125,70.712,46.4,72.581ZM33.029,61.8c-2.732-.359-5.319-.791-7.764-1.366.791-2.372,1.653-4.888,2.732-7.4.791,1.438,1.581,2.947,2.444,4.385.863,1.581,1.725,2.947,2.588,4.385ZM28,43.467c-1.078-2.516-1.941-4.96-2.732-7.4,2.444-.575,5.032-1.006,7.764-1.366-.863,1.366-1.8,2.8-2.588,4.313C29.579,40.52,28.788,42.03,28,43.467ZM46.4,23.987c1.725,1.869,3.379,3.882,4.96,5.966-1.653-.072-3.307-.144-4.96-.144s-3.307.072-4.96.144c1.581-2.085,3.235-4.1,4.96-5.966Zm15.958,15.1-2.588-4.313c2.732.359,5.319.791,7.764,1.366-.791,2.372-1.653,4.888-2.732,7.4C64.012,42.03,63.221,40.52,62.358,39.082ZM23.181,27.437c-1.222-7.548-.216-12.867,2.732-14.593a4.856,4.856,0,0,1,2.516-.647c4.313,0,9.7,3.522,15.1,8.842a94.494,94.494,0,0,0-7.476,9.345,97.732,97.732,0,0,0-11.861,1.8c-.431-1.653-.719-3.235-1.006-4.744ZM5.426,48.284c0-3.379,4.1-6.973,11.286-9.633a43.1,43.1,0,0,1,4.6-1.51,104.777,104.777,0,0,0,4.313,11.214A90.582,90.582,0,0,0,21.312,59.5c-9.92-2.875-15.887-7.188-15.887-11.214ZM25.913,83.723C22.966,82,21.959,76.678,23.181,69.13a43.285,43.285,0,0,1,1.006-4.744,85.4,85.4,0,0,0,11.861,1.8,103.72,103.72,0,0,0,7.476,9.345c-5.319,5.248-10.711,8.842-15.1,8.842a4.856,4.856,0,0,1-2.516-.647ZM69.619,69.13c1.222,7.548.216,12.867-2.732,14.593a4.856,4.856,0,0,1-2.516.647c-4.313,0-9.7-3.522-15.1-8.842a94.494,94.494,0,0,0,7.476-9.345,97.732,97.732,0,0,0,11.861-1.8C69.044,66.039,69.331,67.621,69.619,69.13Zm6.47-11.214a43.1,43.1,0,0,1-4.6,1.51,104.775,104.775,0,0,0-4.313-11.214A90.582,90.582,0,0,0,71.488,37.07c9.92,2.875,15.887,7.188,15.887,11.214C87.374,51.662,83.205,55.257,76.089,57.916Z" transform="translate(-1.4 -8.1)" fill="#61dafb"/>
</svg>
