<svg id="strapi" xmlns="http://www.w3.org/2000/svg" width="80" height="80" viewBox="0 0 80 80">
  <path id="Tracé_69" data-name="Tracé 69" d="M58.263,35.178A1.377,1.377,0,0,1,57.589,35l-5.274-2.98a1.292,1.292,0,0,1-.663-1.113V25.025a1.282,1.282,0,0,1,.667-1.117l5.3-2.953a1.368,1.368,0,0,1,1.33,0l5.312,2.933a1.286,1.286,0,0,1,.674,1.12v5.933a1.282,1.282,0,0,1-.663,1.117l-5.3,2.95a1.358,1.358,0,0,1-.7.167Zm-3.937-5.01L58.283,32.4l3.965-2.21V25.748l-3.972-2.2L54.3,25.768ZM16.668,45.147a1.331,1.331,0,0,1-1.324-.957A1.273,1.273,0,0,1,16,42.724l4.642-2.58a1.378,1.378,0,0,1,1.4-.073,1.27,1.27,0,0,1-.063,2.3l-4.642,2.59a1.362,1.362,0,0,1-.663.187Zm-1.009,7.8a1.324,1.324,0,0,1-1.334-.958A1.268,1.268,0,0,1,15,50.527l8.9-4.923a1.378,1.378,0,0,1,1.387-.056,1.27,1.27,0,0,1-.061,2.289L16.3,52.78a1.363,1.363,0,0,1-.642.167Zm1.44,6.42a1.33,1.33,0,0,1-1.311-.964,1.273,1.273,0,0,1,.655-1.46l10.766-5.813a1.378,1.378,0,0,1,1.392-.05,1.27,1.27,0,0,1-.087,2.294L17.773,59.19A1.349,1.349,0,0,1,17.1,59.37ZM43.276,6.633,36.669,2.756,3.277,21.4l.066,5.33,12.631,7.033,8.251-4.553,1.8-8.47a1.31,1.31,0,0,1,.642-.86L55.731,3.733a1.393,1.393,0,0,1,1.337,0L78.751,15.849a1.266,1.266,0,0,1,.67,1.113L79.38,41.188a1.283,1.283,0,0,1-.674,1.117L49.956,58.237a1.383,1.383,0,0,1-1.029.123L40.2,55.98l-8.179,4.593V74.563l4.784,2.667L70.2,58.587V51.094l2.659-1.677v9.906a1.275,1.275,0,0,1-.66,1.12L37.477,79.826a1.368,1.368,0,0,1-1.337,0l-6.127-3.4a1.276,1.276,0,0,1-.67-1.113V59.843a1.276,1.276,0,0,1,.663-1.11l9.332-5.24a1.372,1.372,0,0,1,1.036-.127l8.745,2.387L76.734,40.464l.041-22.732L56.422,6.366,28.549,21.872,26.732,30.3a1.294,1.294,0,0,1-.646.857l-9.419,5.23a1.382,1.382,0,0,1-1.333,0L1.381,28.632a1.283,1.283,0,0,1-.67-1.1L.6,20.689a1.275,1.275,0,0,1,.663-1.127L36.016.18a1.378,1.378,0,0,1,1.361,0l8.535,5.006Z" transform="translate(0 0)" fill="#626262"/>
  <rect id="Rectangle_10" data-name="Rectangle 10" width="80" height="79.999" fill="rgba(246,246,246,0)"/>
</svg>
