<svg xmlns="http://www.w3.org/2000/svg" width="99.617" height="99.617" viewBox="0 0 99.617 99.617">
  <g id="wordpress" transform="translate(-2 -2)">
    <path id="Tracé_70" data-name="Tracé 70" d="M49.42,2.6A46.82,46.82,0,1,0,96.24,49.42,46.82,46.82,0,0,0,49.42,2.6Z" transform="translate(2.389 2.389)" fill="#d8d8ff"/>
    <path id="Tracé_71" data-name="Tracé 71" d="M45.9,29.131,33.447,65.318a41.525,41.525,0,0,0,25.51-.662,3.708,3.708,0,0,1-.3-.572ZM3.667,25.5a41.512,41.512,0,0,0,23.4,37.358L7.26,8.608A41.342,41.342,0,0,0,3.667,25.5Z" transform="translate(6.635 26.307)" fill="#6563ff"/>
    <path id="Tracé_72" data-name="Tracé 72" d="M67.738,43.079a21.86,21.86,0,0,0-3.422-11.447A19.439,19.439,0,0,1,60.239,21.9a7.187,7.187,0,0,1,6.97-7.366c.184,0,.359.022.537.033a41.5,41.5,0,0,0-62.709,7.81c.974.031,1.892.05,2.671.05,4.341,0,11.063-.528,11.063-.528a1.716,1.716,0,1,1,.265,3.421s-2.25.263-4.75.394L29.4,70.672,38.486,43.43,32.019,25.712c-2.236-.131-4.353-.394-4.353-.394A1.716,1.716,0,1,1,27.93,21.9s6.853.528,10.931.528c4.341,0,11.064-.528,11.064-.528a1.716,1.716,0,1,1,.265,3.421s-2.251.263-4.75.394l15,44.617L64.72,56.761A47.835,47.835,0,0,0,67.738,43.079Z" transform="translate(12.091 6.634)" fill="#6563ff"/>
    <path id="Tracé_73" data-name="Tracé 73" d="M51.808,2a49.808,49.808,0,1,0,49.808,49.808A49.808,49.808,0,0,0,51.808,2ZM90.634,77.984a46.8,46.8,0,1,1,4.317-44.4,46.955,46.955,0,0,1-4.317,44.4Z" transform="translate(0 0)" fill="#6563ff"/>
    <path id="Tracé_74" data-name="Tracé 74" d="M32.024,12.269a39.176,39.176,0,0,1-3.157,14.867L16.19,63.789A41.512,41.512,0,0,0,31.745,8a31.785,31.785,0,0,1,.279,4.267Z" transform="translate(56.487 23.893)" fill="#6563ff"/>
  </g>
</svg>
