<svg width="97" height="95" viewBox="0 0 97 95" fill="none" xmlns="http://www.w3.org/2000/svg">
<path d="M89.013 73.369C83.755 73.238 79.68 73.764 76.262 75.21C75.276 75.604 73.698 75.604 73.562 76.853C74.088 77.379 74.154 78.233 74.614 78.953C75.5147 80.476 76.6709 81.8325 78.032 82.963C79.412 84.014 80.793 85.063 82.238 85.986C84.802 87.564 87.694 88.486 90.191 90.061C91.638 90.98 93.082 92.161 94.529 93.15C95.252 93.675 95.712 94.53 96.629 94.859V94.659C96.168 94.067 96.037 93.213 95.577 92.559C94.92 91.902 94.262 91.31 93.605 90.653C91.6819 88.1044 89.3787 85.8663 86.776 84.017C84.676 82.571 80.076 80.599 79.217 78.167L79.086 78.036C80.6254 77.8179 82.1428 77.4659 83.621 76.984C85.856 76.392 87.893 76.524 90.194 75.932C91.245 75.669 92.294 75.34 93.348 75.012V74.421C92.166 73.238 91.311 71.661 90.062 70.543C86.6607 67.5729 83.0349 64.8702 79.217 62.459C77.179 61.144 74.55 60.29 72.381 59.173C71.593 58.778 70.281 58.581 69.818 57.924C68.7376 56.3396 67.8323 54.6427 67.118 52.863C65.212 49.248 63.372 45.239 61.728 41.427C60.546 38.863 59.822 36.3 58.376 33.934C51.615 22.76 44.254 15.991 32.949 9.352C30.517 7.972 27.625 7.38 24.536 6.658C22.893 6.592 21.25 6.458 19.607 6.395C18.555 5.935 17.507 4.686 16.583 4.095C12.838 1.728 3.176 -3.4 0.414999 3.371C-1.36 7.643 3.044 11.849 4.555 14.019C5.82827 15.5504 6.95081 17.201 7.907 18.948C8.367 20.065 8.498 21.248 8.958 22.431C9.9204 25.4326 11.0618 28.3739 12.376 31.239C13.084 32.656 13.8969 34.0182 14.808 35.314C15.334 36.037 16.254 36.366 16.451 37.549C15.531 38.864 15.465 40.836 14.939 42.479C12.576 49.9 13.495 59.106 16.846 64.561C17.897 66.204 20.395 69.82 23.746 68.439C26.704 67.256 26.046 63.51 26.9 60.224C27.1 59.434 26.966 58.909 27.361 58.383V58.515C28.281 60.355 29.201 62.13 30.056 63.97C32.4016 67.3545 35.2882 70.3299 38.6 72.777C40.178 73.959 41.427 75.997 43.4 76.72V76.52H43.268C42.8274 76.014 42.3189 75.5715 41.757 75.205C40.5118 73.9863 39.3686 72.6676 38.339 71.262C35.5572 67.4857 33.0944 63.4846 30.976 59.3C29.925 57.263 29.004 55.028 28.15 52.991C27.755 52.201 27.755 51.019 27.098 50.625C26.112 52.071 24.666 53.32 23.943 55.094C22.695 57.92 22.563 61.404 22.103 65.018C21.84 65.084 21.971 65.018 21.84 65.15C19.74 64.623 19.014 62.45 18.225 60.614C16.253 55.948 15.925 48.455 17.634 43.066C18.094 41.686 20.066 37.348 19.277 36.033C18.883 34.784 17.568 34.061 16.845 33.075C15.9291 31.7493 15.1362 30.3428 14.476 28.873C12.898 25.192 12.11 21.117 10.401 17.437C9.45348 15.6585 8.35406 13.9652 7.115 12.376C5.87 10.6 4.49 9.352 3.504 7.249C3.176 6.526 2.715 5.343 3.241 4.554C3.28146 4.33135 3.39297 4.1278 3.55882 3.97384C3.72468 3.81988 3.93595 3.7238 4.161 3.7C5.016 2.977 7.448 3.9 8.301 4.291C10.5831 5.14638 12.765 6.24824 14.808 7.577C15.728 8.234 16.714 9.483 17.897 9.812H19.276C21.376 10.272 23.745 9.943 25.717 10.535C29.0492 11.645 32.229 13.1685 35.182 15.07C43.8869 20.6156 50.9638 28.3724 55.69 37.548C56.479 39.059 56.807 40.44 57.53 42.017C58.911 45.238 60.619 48.524 61.999 51.679C63.2098 54.7848 64.7759 57.7401 66.666 60.486C67.652 61.866 71.595 62.586 73.366 63.312C74.9088 63.8455 76.4226 64.4597 77.901 65.152C80.136 66.532 82.37 68.11 84.474 69.621C85.526 70.41 88.812 72.053 89.009 73.367L89.013 73.369Z" fill="#00C2FF"/>
</svg>

