<svg width="40" height="40" viewBox="0 0 40 40" fill="none" xmlns="http://www.w3.org/2000/svg">
<path d="M8.95357 39.9991H0.660714V13.2937H8.95357V39.9991ZM4.80268 9.65089C2.15089 9.65089 0 7.45446 0 4.80268C1.89803e-08 3.52893 0.505995 2.30735 1.40667 1.40667C2.30735 0.505995 3.52893 0 4.80268 0C6.07643 0 7.29801 0.505995 8.19868 1.40667C9.09936 2.30735 9.60536 3.52893 9.60536 4.80268C9.60536 7.45446 7.45357 9.65089 4.80268 9.65089ZM39.9911 39.9991H31.7161V26.9991C31.7161 23.9009 31.6536 19.9277 27.4045 19.9277C23.0929 19.9277 22.4321 23.2937 22.4321 26.7759V39.9991H14.1482V13.2937H22.1018V16.9366H22.2179C23.325 14.8384 26.0295 12.6241 30.0643 12.6241C38.4571 12.6241 40 18.1509 40 25.3295V39.9991H39.9911Z" fill="white"/>
</svg>
