<svg xmlns="http://www.w3.org/2000/svg" width="80" height="80" viewBox="0 0 80 80">
  <path id="js" d="M.384.67v80h80V.67ZM42.138,69.106A9.445,9.445,0,0,1,36.1,73.835a14.52,14.52,0,0,1-10.693-1.316A12,12,0,0,1,21,67.47q3.044-1.86,6.084-3.727a3.922,3.922,0,0,1,.427.685,6.394,6.394,0,0,0,2.761,2.866c1.293.44,4.128.723,5.225-1.552.67-1.155.455-4.949.455-9.062,0-6.465.031-12.822.031-19.366h7.482c0,6.871.038,13.76,0,20.621.015,4.205.381,8.027-1.324,11.168Zm31.043-2.114c-2.6,8.9-17.1,9.187-22.9,3.308a13.518,13.518,0,0,1-2.722-3.7c3.08-1.771,3.08-1.771,6.076-3.5,1.628,2.5,3.134,3.878,5.841,4.44,3.673.447,7.37-.813,6.541-4.714-.851-3.188-7.52-3.962-12.06-7.37-4.609-3.1-5.688-10.616-1.9-14.913a10.693,10.693,0,0,1,5.672-3.346l2.357-.3c4.525-.092,7.354,1.1,9.43,3.423a15.014,15.014,0,0,1,1.933,2.587c-2.411,1.536-2.4,1.521-5.856,3.758a5.566,5.566,0,0,0-3.254-3.019c-2.007-.608-4.54.054-5.064,2.175a4.141,4.141,0,0,0,.146,2.342c.813,1.856,3.543,2.661,5.992,3.786,7.05,2.86,9.43,5.923,10.015,9.573a11.013,11.013,0,0,1-.243,5.483Z" transform="translate(-0.384 -0.67)" fill="#ffd500"/>
</svg>
